<svg width="556" height="95" viewBox="0 0 556 95" fill="none" xmlns="http://www.w3.org/2000/svg">
<path d="M49.949 21.773L50.714 17.795C50.306 12.287 46.583 9.53299 39.545 9.53299C35.465 9.53299 31.895 11.012 28.835 13.97C25.877 16.826 24.398 19.886 24.398 23.15C24.398 26.312 25.724 29.117 28.376 31.565C31.13 33.911 34.394 36.053 38.168 37.991C42.044 39.827 45.869 41.867 49.643 44.111C53.519 46.253 56.783 49.058 59.435 52.526C62.189 55.994 63.566 59.921 63.566 64.307C63.566 73.385 59.996 80.525 52.856 85.727C45.716 90.929 38.015 93.53 29.753 93.53C21.491 93.53 14.606 92.051 9.098 89.093C3.59 86.033 0.836 81.443 0.836 75.323C0.836 72.059 1.958 69.101 4.202 66.449C6.446 63.797 9.659 62.471 13.841 62.471C15.473 62.471 16.952 62.93 18.278 63.848C19.604 64.766 20.42 65.99 20.726 67.52C20.726 69.05 19.808 69.815 17.972 69.815C14.504 69.815 12.77 71.294 12.77 74.252C12.872 77.618 14.453 80.678 17.513 83.432C20.675 86.186 25.061 87.563 30.671 87.563C36.383 87.563 41.228 85.625 45.206 81.749C49.286 77.873 51.326 73.181 51.326 67.673C51.326 64.001 49.949 60.686 47.195 57.728C44.441 54.77 41.126 52.271 37.25 50.231C33.374 48.089 29.447 45.947 25.469 43.805C21.593 41.663 18.278 39.062 15.524 36.002C12.77 32.942 11.393 29.474 11.393 25.598C11.393 18.764 14.3 13.307 20.114 9.227C26.03 5.147 32.711 3.107 40.157 3.107C45.155 3.107 49.694 4.12699 53.774 6.16699C57.854 8.207 59.945 11.318 60.047 15.5C60.047 17.948 59.435 19.988 58.211 21.62C56.987 23.252 55.304 24.068 53.162 24.068C51.122 24.068 50.051 23.303 49.949 21.773ZM119.872 58.799C123.952 57.473 126.757 56.351 128.287 55.433C129.919 54.413 131.143 53.648 131.959 53.138L133.795 52.067C134.305 51.761 134.713 51.608 135.019 51.608C135.835 51.608 136.243 52.067 136.243 52.985C136.243 53.903 134.662 55.535 131.5 57.881C128.338 60.125 124.411 62.165 119.719 64.001C119.005 72.569 116.302 79.505 111.61 84.809C106.918 90.113 100.237 92.765 91.5669 92.765C85.2429 92.765 80.3979 90.266 77.0319 85.268C73.6659 80.168 71.9829 74.252 71.9829 67.52C71.9829 60.686 73.9719 54.26 77.9499 48.242C82.0299 42.224 87.2319 39.215 93.5559 39.215C96.4119 37.175 99.7779 36.155 103.654 36.155C107.632 36.155 111.304 38.246 114.67 42.428C118.036 46.61 119.77 52.067 119.872 58.799ZM109.927 66.602L104.419 66.908C99.7269 66.908 95.7489 65.531 92.4849 62.777C89.2209 59.921 87.5889 56.81 87.5889 53.444C87.5889 50.078 88.1499 47.171 89.2719 44.723C84.8859 48.191 82.6929 55.025 82.6929 65.225C82.6929 70.121 83.7129 74.813 85.7529 79.301C87.7929 83.687 91.0059 85.88 95.3919 85.88C99.7779 85.88 103.195 84.044 105.643 80.372C108.091 76.598 109.519 72.008 109.927 66.602ZM100.441 41.204C98.8089 41.204 97.5339 41.969 96.6159 43.499C95.6979 44.927 95.2389 46.508 95.2389 48.242C95.2389 52.016 96.5139 55.076 99.0639 57.422C101.716 59.768 104.776 60.941 108.244 60.941H110.08C109.876 55.943 109.009 51.404 107.479 47.324C106.051 43.244 103.705 41.204 100.441 41.204ZM154.871 54.821L156.095 47.018C156.095 45.896 155.738 44.876 155.024 43.958C154.31 43.04 153.392 42.581 152.27 42.581C148.496 42.581 145.232 45.437 142.478 51.149C139.724 56.759 138.347 62.165 138.347 67.367C138.347 72.569 139.418 76.802 141.56 80.066C143.702 83.228 146.303 84.809 149.363 84.809C152.525 84.809 155.33 84.095 157.778 82.667C160.226 81.239 162.47 79.199 164.51 76.547C168.794 70.937 172.466 64.562 175.526 57.422C176.342 55.586 176.954 54.26 177.362 53.444C177.872 52.628 178.382 52.22 178.892 52.22C179.504 52.22 179.81 52.628 179.81 53.444C179.81 56.81 178.637 60.839 176.291 65.531C173.945 70.223 171.956 73.844 170.324 76.394C168.794 78.842 166.805 81.443 164.357 84.197C159.257 89.909 152.882 92.765 145.232 92.765C139.418 92.765 134.981 90.725 131.921 86.645C128.963 82.463 127.484 78.026 127.484 73.334C127.484 61.706 129.983 52.883 134.981 46.865C140.081 40.745 146.507 37.685 154.259 37.685C157.523 37.685 160.073 38.552 161.909 40.286C163.847 41.918 164.816 43.805 164.816 45.947C164.816 49.925 164.102 52.883 162.674 54.821C161.246 56.759 159.512 57.728 157.472 57.728C155.738 57.728 154.871 56.759 154.871 54.821ZM176.694 17.183C176.694 15.347 177.663 13.766 179.601 12.44C181.539 11.114 183.273 10.451 184.803 10.451C187.557 10.451 188.934 12.032 188.934 15.194C188.934 18.356 188.118 21.11 186.486 23.456C184.854 25.7 182.559 26.822 179.601 26.822C177.663 26.822 176.694 23.609 176.694 17.183ZM181.131 92.765C177.153 92.765 174.144 91.949 172.104 90.317C171.39 89.603 171.033 87.053 171.033 82.667C171.033 78.281 171.339 70.988 171.951 60.788C172.665 50.486 173.277 44.927 173.787 44.111C174.297 43.295 175.878 41.765 178.53 39.521C181.182 37.277 183.222 36.155 184.65 36.155C186.18 36.155 186.945 38.093 186.945 41.969C186.945 42.989 186.639 44.978 186.027 47.936C185.517 50.894 184.905 53.036 184.191 54.362C182.865 57.728 182.202 66.551 182.202 80.831C182.202 83.585 182.508 84.962 183.12 84.962C184.854 84.86 187.251 82.718 190.311 78.536C193.371 74.252 196.38 68.795 199.338 62.165C202.398 55.535 204.234 52.22 204.846 52.22C205.56 52.22 205.917 52.628 205.917 53.444C205.917 56.3 204.438 60.839 201.48 67.061C193.422 84.197 186.639 92.765 181.131 92.765ZM240.541 92.765C236.563 92.765 233.554 91.949 231.514 90.317C230.8 89.603 230.443 87.818 230.443 84.962C230.443 82.004 230.545 78.077 230.749 73.181C228.097 79.811 225.445 84.758 222.793 88.022C220.243 91.184 216.928 92.765 212.848 92.765C208.768 92.765 205.198 90.878 202.138 87.104C199.078 83.228 197.548 77.21 197.548 69.05C197.548 60.788 199.843 53.495 204.433 47.171C209.125 40.847 215.245 37.685 222.793 37.685C226.057 37.685 229.729 39.827 233.809 44.111C234.625 42.989 236.053 41.663 238.093 40.133C240.235 38.501 242.02 37.685 243.448 37.685C244.978 37.685 245.743 39.623 245.743 43.499C245.743 44.519 245.437 46.508 244.825 49.466C244.315 52.424 243.703 54.566 242.989 55.892C242.071 58.238 241.612 66.551 241.612 80.831C241.612 83.585 241.918 84.962 242.53 84.962C244.264 84.86 246.661 82.718 249.721 78.536C252.781 74.252 255.79 68.795 258.748 62.165C261.808 55.535 263.644 52.22 264.256 52.22C264.97 52.22 265.327 52.628 265.327 53.444C265.327 56.3 263.848 60.839 260.89 67.061C252.832 84.197 246.049 92.765 240.541 92.765ZM221.875 43.805C219.019 43.805 215.959 45.947 212.695 50.231C209.533 54.413 207.952 59.36 207.952 65.072C207.952 70.784 208.768 75.476 210.4 79.148C212.134 82.82 214.378 84.656 217.132 84.656C220.498 84.656 225.445 76.241 231.973 59.411C232.075 58.595 232.177 57.218 232.279 55.28C232.483 53.24 232.636 51.71 232.738 50.69C231.82 49.058 230.188 47.528 227.842 46.1C225.598 44.57 223.609 43.805 221.875 43.805ZM267.057 92.765C264.813 92.765 262.722 92.51 260.784 92C258.948 91.388 257.826 90.827 257.418 90.317C256.398 89.093 255.888 82.769 255.888 71.345C255.888 59.819 257.163 44.213 259.713 24.527C261.855 8.309 266.853 0.199996 274.707 0.199996C276.543 0.199996 277.869 1.22 278.685 3.25999C279.501 5.19799 279.909 7.08499 279.909 8.92099C279.909 22.181 275.88 37.022 267.822 53.444C267.516 61.91 267.363 69.305 267.363 75.629C267.363 81.851 267.924 84.962 269.046 84.962C270.78 84.86 273.177 82.718 276.237 78.536C279.297 74.252 282.306 68.795 285.264 62.165C288.324 55.535 290.16 52.22 290.772 52.22C291.486 52.22 291.843 52.628 291.843 53.444C291.843 56.3 290.364 60.839 287.406 67.061C279.348 84.197 272.565 92.765 267.057 92.765ZM276.084 10.298C276.084 7.03399 275.676 5.40199 274.86 5.40199C271.8 5.40199 269.556 18.101 268.128 43.499C273.432 29.525 276.084 18.458 276.084 10.298ZM356.914 59.258C360.076 58.34 363.391 56.81 366.859 54.668C370.327 52.424 372.52 51.302 373.438 51.302C374.356 51.302 374.815 51.914 374.815 53.138C374.815 54.26 374.101 55.331 372.673 56.351C367.471 60.023 362.065 62.828 356.455 64.766C354.313 74.66 349.519 82.055 342.073 86.951C334.627 91.847 326.11 94.295 316.522 94.295C310.402 94.295 304.996 93.224 300.304 91.082C295.714 88.94 292.195 86.186 289.747 82.82C284.851 76.19 282.403 69.203 282.403 61.859C282.403 52.373 283.831 43.805 286.687 36.155C289.645 28.403 293.47 22.232 298.162 17.642C302.854 12.95 307.903 9.38 313.309 6.93199C318.817 4.48399 324.376 3.25999 329.986 3.25999C335.596 3.25999 340.747 5.09599 345.439 8.768C350.131 12.338 352.477 16.469 352.477 21.161C352.477 22.691 351.865 23.966 350.641 24.986C349.519 26.006 348.142 26.516 346.51 26.516C344.164 26.516 342.532 24.884 341.614 21.62C339.37 13.766 334.015 9.839 325.549 9.839C318.409 9.839 311.473 14.276 304.741 23.15C298.111 32.024 294.796 42.53 294.796 54.668C294.796 63.236 297.346 70.682 302.446 77.006C307.648 83.33 314.125 86.492 321.877 86.492C328.099 86.492 333.403 84.707 337.789 81.137C342.175 77.567 344.98 72.977 346.204 67.367C343.654 67.877 340.543 68.132 336.871 68.132C333.199 68.132 329.986 67.265 327.232 65.531C324.58 63.797 323.254 61.451 323.254 58.493C323.254 55.433 324.784 52.832 327.844 50.69C331.006 48.548 334.984 47.477 339.778 47.477C344.572 47.477 348.601 48.446 351.865 50.384C355.231 52.322 356.914 55.28 356.914 59.258ZM339.319 52.679C334.729 52.679 332.434 53.699 332.434 55.739C332.434 57.269 333.352 58.544 335.188 59.564C337.024 60.584 338.911 61.094 340.849 61.094C342.889 61.094 344.929 60.992 346.969 60.788C346.867 58.34 346.051 56.402 344.521 54.974C342.991 53.444 341.257 52.679 339.319 52.679ZM379.754 52.067L388.169 51.149C388.985 51.149 389.699 51.608 390.311 52.526C390.923 53.444 391.229 54.413 391.229 55.433C391.229 56.453 390.872 59.921 390.158 65.837C389.546 71.753 389.24 76.445 389.24 79.913C389.24 83.279 389.546 84.962 390.158 84.962C391.892 84.86 394.289 82.718 397.349 78.536C400.409 74.252 403.418 68.795 406.376 62.165C409.436 55.535 411.272 52.22 411.884 52.22C412.598 52.22 412.955 52.628 412.955 53.444C412.955 56.3 411.476 60.839 408.518 67.061C400.46 84.197 393.677 92.765 388.169 92.765C384.191 92.765 381.182 91.949 379.142 90.317C378.428 89.603 378.071 85.166 378.071 77.006C378.071 68.846 378.938 61.859 380.672 56.045C374.756 56.045 370.625 54.158 368.279 50.384C367.055 48.446 366.443 46.253 366.443 43.805C366.443 41.357 366.953 39.215 367.973 37.379C368.993 35.543 370.421 34.625 372.257 34.625C374.195 34.625 375.929 35.645 377.459 37.685C379.091 39.623 379.907 41.816 379.907 44.264C379.907 46.712 379.193 49.16 377.765 51.608C378.173 51.914 378.836 52.067 379.754 52.067ZM448.203 92.765C444.225 92.765 441.216 91.949 439.176 90.317C438.462 89.603 438.105 87.818 438.105 84.962C438.105 82.004 438.207 78.077 438.411 73.181C435.759 79.811 433.107 84.758 430.455 88.022C427.905 91.184 424.59 92.765 420.51 92.765C416.43 92.765 412.86 90.878 409.8 87.104C406.74 83.228 405.21 77.21 405.21 69.05C405.21 60.788 407.505 53.495 412.095 47.171C416.787 40.847 422.907 37.685 430.455 37.685C433.719 37.685 437.391 39.827 441.471 44.111C442.287 42.989 443.715 41.663 445.755 40.133C447.897 38.501 449.682 37.685 451.11 37.685C452.64 37.685 453.405 39.623 453.405 43.499C453.405 44.519 453.099 46.508 452.487 49.466C451.977 52.424 451.365 54.566 450.651 55.892C449.733 58.238 449.274 66.551 449.274 80.831C449.274 83.585 449.58 84.962 450.192 84.962C451.926 84.86 454.323 82.718 457.383 78.536C460.443 74.252 463.452 68.795 466.41 62.165C469.47 55.535 471.306 52.22 471.918 52.22C472.632 52.22 472.989 52.628 472.989 53.444C472.989 56.3 471.51 60.839 468.552 67.061C460.494 84.197 453.711 92.765 448.203 92.765ZM429.537 43.805C426.681 43.805 423.621 45.947 420.357 50.231C417.195 54.413 415.614 59.36 415.614 65.072C415.614 70.784 416.43 75.476 418.062 79.148C419.796 82.82 422.04 84.656 424.794 84.656C428.16 84.656 433.107 76.241 439.635 59.411C439.737 58.595 439.839 57.218 439.941 55.28C440.145 53.24 440.298 51.71 440.4 50.69C439.482 49.058 437.85 47.528 435.504 46.1C433.26 44.57 431.271 43.805 429.537 43.805ZM476.249 83.738L476.402 88.481C476.402 91.337 475.586 92.765 473.954 92.765C471.506 92.765 469.16 92.459 466.916 91.847C464.672 91.133 463.55 90.215 463.55 89.093C463.55 87.869 463.805 83.84 464.315 77.006C464.927 70.07 465.233 64.868 465.233 61.4V52.373C465.233 47.477 465.743 44.519 466.763 43.499C467.783 42.479 469.568 41 472.118 39.062C474.77 37.124 476.657 36.155 477.779 36.155C479.003 36.155 479.768 36.359 480.074 36.767C480.38 37.175 480.533 37.94 480.533 39.062C480.533 44.468 479.513 49.568 477.473 54.362C476.963 60.176 476.708 64.205 476.708 66.449C482.114 56.351 485.888 49.721 488.03 46.559C491.804 40.643 495.221 37.685 498.281 37.685C500.219 37.685 502.004 38.45 503.636 39.98C505.37 41.51 506.237 43.397 506.237 45.641C506.237 47.885 506.186 50.027 506.084 52.067C506.084 54.005 506.033 55.535 505.931 56.657C505.829 57.779 505.778 58.493 505.778 58.799C506.186 57.983 507.92 55.688 510.98 51.914C514.04 48.14 516.08 45.692 517.1 44.57C518.222 43.448 519.395 42.326 520.619 41.204C522.965 38.858 525.056 37.685 526.892 37.685C528.83 37.685 530.615 38.399 532.247 39.827C533.981 41.255 534.848 43.04 534.848 45.182C534.848 49.67 534.338 56.3 533.318 65.072C532.4 73.742 531.941 79.25 531.941 81.596C531.941 83.84 532.247 84.962 532.859 84.962C534.593 84.86 536.99 82.718 540.05 78.536C543.11 74.252 546.119 68.795 549.077 62.165C552.137 55.535 553.973 52.22 554.585 52.22C555.299 52.22 555.656 52.628 555.656 53.444C555.656 56.3 554.177 60.839 551.219 67.061C543.161 84.197 536.378 92.765 530.87 92.765C527.402 92.765 524.648 91.949 522.608 90.317C521.894 89.603 521.537 87.767 521.537 84.809C521.537 81.749 521.792 76.853 522.302 70.121C522.914 63.287 523.22 58.187 523.22 54.821C523.22 51.455 522.659 49.772 521.537 49.772C520.211 49.772 517.304 52.016 512.816 56.504C508.43 60.992 506.084 64.154 505.778 65.99C505.166 69.458 504.86 76.955 504.86 88.481C504.86 91.337 504.095 92.765 502.565 92.765C500.219 92.765 497.975 92.459 495.833 91.847C493.793 91.133 492.773 90.215 492.773 89.093C492.773 87.869 493.079 82.82 493.691 73.946C494.303 65.072 494.609 58.85 494.609 55.28C494.609 51.608 493.997 49.772 492.773 49.772C491.651 49.772 488.846 53.291 484.358 60.329C479.87 67.265 477.371 72.11 476.861 74.864C476.453 77.618 476.249 80.576 476.249 83.738Z" fill="black"/>
</svg>
